<svg id="visual" viewBox="0 0 960 540" width="960" height="540" xmlns="http://www.w3.org/2000/svg" xmlns:xlink="http://www.w3.org/1999/xlink" version="1.1"><path d="M0 351L26.7 361.7C53.3 372.3 106.7 393.7 160 406C213.3 418.3 266.7 421.7 320 415.3C373.3 409 426.7 393 480 378.2C533.3 363.3 586.7 349.7 640 350.8C693.3 352 746.7 368 800 387.8C853.3 407.7 906.7 431.3 933.3 443.2L960 455L960 541L933.3 541C906.7 541 853.3 541 800 541C746.7 541 693.3 541 640 541C586.7 541 533.3 541 480 541C426.7 541 373.3 541 320 541C266.7 541 213.3 541 160 541C106.7 541 53.3 541 26.7 541L0 541Z" fill="#0066FF" stroke-linecap="round" stroke-linejoin="miter"></path></svg>